<?xml version="1.0" standalone="no"?>
<!DOCTYPE svg PUBLIC "-//W3C//DTD SVG 20010904//EN"
 "http://www.w3.org/TR/2001/REC-SVG-20010904/DTD/svg10.dtd">
<svg version="1.0" xmlns="http://www.w3.org/2000/svg"
 width="512.000000pt" height="512.000000pt" viewBox="0 0 512.000000 512.000000"
 preserveAspectRatio="xMidYMid meet">
<metadata>
Created by potrace 1.11, written by Peter Selinger 2001-2013
</metadata>
<g transform="translate(0.000000,512.000000) scale(0.100000,-0.100000)"
fill="#000000" stroke="none">
<path d="M2788 5102 c-36 -22 -47 -45 -53 -109 -8 -79 -22 -127 -56 -198 -52
-106 -50 -105 -108 -47 -47 47 -65 58 -144 91 -55 22 -165 12 -235 -22 -21
-10 -29 -4 -90 56 -80 79 -106 91 -150 70 -36 -17 -53 -57 -40 -93 5 -14 39
-55 75 -92 l66 -67 -21 -48 c-26 -60 -26 -189 0 -240 14 -28 14 -33 2 -34 -8
-1 -17 -2 -21 -3 -5 -1 -30 -6 -58 -10 -260 -42 -487 -298 -497 -563 -1 -18
-4 -35 -7 -37 -3 -2 -31 -7 -61 -10 -325 -38 -568 -318 -553 -640 2 -61 20
-151 38 -197 4 -11 -5 -21 -34 -34 -51 -22 -89 -66 -112 -124 -14 -39 -17 -86
-18 -326 -1 -321 4 -356 61 -420 45 -51 100 -74 182 -78 65 -3 66 -5 80 -87 2
-14 11 -54 19 -90 8 -36 18 -81 21 -101 3 -19 14 -73 25 -120 11 -46 38 -169
61 -274 23 -104 53 -239 66 -300 14 -60 27 -121 30 -135 8 -40 55 -253 59
-270 2 -8 19 -90 39 -182 46 -220 74 -272 181 -334 l50 -29 964 -3 965 -2 54
26 c63 31 114 79 142 135 12 22 34 104 51 182 16 78 45 210 64 292 19 83 37
164 40 180 10 61 16 85 59 275 41 183 71 322 149 685 l32 150 55 1 c104 1 178
44 223 128 21 39 22 54 24 344 3 271 1 307 -15 350 -23 61 -46 87 -102 120
-25 14 -46 26 -48 27 -1 1 5 21 13 44 8 23 18 64 22 89 41 282 -99 545 -353
663 -58 27 -181 61 -207 58 -39 -5 -55 2 -54 24 7 199 -146 435 -348 532 -72
34 -106 45 -165 54 -3 1 -5 63 -5 139 0 135 -3 157 -25 230 -25 80 -69 176
-111 242 -41 63 -111 139 -131 142 -49 5 -69 3 -90 -10z"/>
</g>
</svg>
